<?xml version="1.0" encoding="utf-8"?>
<!-- Generator: Adobe Illustrator 25.4.1, SVG Export Plug-In . SVG Version: 6.00 Build 0)  -->
<svg version="1.1" id="Lager_4" xmlns="http://www.w3.org/2000/svg" xmlns:xlink="http://www.w3.org/1999/xlink" x="0px" y="0px"
	 viewBox="0 0 469.1 126.8" style="enable-background:new 0 0 469.1 126.8;" xml:space="preserve">
<style type="text/css">
	.st0{fill:#1A171B;}
	.st1{opacity:0.52;}
	.st2{fill:#67C5D1;}
	.st3{fill:url(#SVGID_1_);}
	.st4{fill:url(#SVGID_00000149346020449157591530000007515254434156822453_);}
	.st5{fill:url(#SVGID_00000104694908871304150890000010443581063436148158_);}
	.st6{fill:url(#SVGID_00000010292063649368147570000002987693699364612772_);}
</style>
<g>
	<g>
		<path class="st0" d="M258.9,28.9c-14.6,0-21.5,6.8-21.5,15.4c0,10.2,8.5,15.5,21.4,15.5c14.6,0,21.5-6.4,21.5-15.5
			C280.4,36.4,273.9,28.9,258.9,28.9z M258.9,52.4c-7.7,0-11.9-2.2-11.9-8c0-4.6,3.4-7.9,11.9-7.9c8.4,0,12,3.3,12,7.9
			C270.9,49.4,267,52.4,258.9,52.4z M213.2,28.9c-14.6,0-21.5,6.8-21.5,15.4c0,10.2,8.5,15.5,21.4,15.5c14.6,0,21.5-6.4,21.5-15.5
			C234.7,36.4,228.1,28.9,213.2,28.9z M213.2,52.4c-7.7,0-11.9-2.2-11.9-8c0-4.6,3.4-7.9,11.9-7.9c8.4,0,12,3.3,12,7.9
			C225.2,49.4,221.3,52.4,213.2,52.4z M177.2,47.1c-2.7,3.1-6.7,4.2-13.1,4.2c-5.4,0-10.9-1.5-13.6-5.1c-1.3-1.8-2-4.3-2-8
			c0-3.4,0.7-5.9,2-7.8c2.3-3.3,6.9-5.3,13.6-5.3c6.8,0,11.1,1.8,13.1,4.4c1,1.2,1.6,2.8,1.7,4.2h10.5c-0.1-1.6-0.6-4.5-1.9-6.8
			c-3.4-5.8-10.1-10.5-23.3-10.5c-11.5,0-18.3,3.6-22.3,8.7c-2.6,3.1-3.8,7.5-3.8,13c0,6,1.5,10.5,4.3,13.7c3.8,4.8,10.9,8,22,8
			c12.3,0,19.5-3.6,22.8-9.5c1.6-2.6,2.1-5.7,2.3-7.5h-10.5C178.6,44.4,178.2,45.8,177.2,47.1z M292.8,56.1V20.3
			c0-1.6-0.1-2.8-0.3-3.5h-9.5c0.1,0.5,0.2,1.9,0.2,3.8v35.6c0,2,0.2,2.8,0.4,2.9h9.6C292.9,58.9,292.8,57.6,292.8,56.1z"/>
	</g>
	<g>
		<path class="st0" d="M213.8,79.6c-14.6,0-21.5,6.8-21.5,15.4c0,10.2,8.5,15.5,21.4,15.5c14.6,0,21.5-6.4,21.5-15.5
			C235.3,87.1,228.8,79.6,213.8,79.6z M213.8,103.1c-7.7,0-11.9-2.2-11.9-8c0-4.6,3.4-7.9,11.9-7.9c8.4,0,12,3.3,12,7.9
			C225.8,100.1,221.9,103.1,213.8,103.1z M325.4,79.7c-7,0-12.6,2.4-14.2,5l-0.2-4.2h-9.2v39h9.5V106c2.4,3.1,8.7,4.2,13.8,4.2
			c6.8,0,12.6-2.3,15.4-6c1.9-2.4,2.9-5.5,2.9-9.3c0-3.7-1-6.6-2.8-9C338,82,332.6,79.7,325.4,79.7z M332.5,99.2
			c-1.7,2.4-5.2,3.6-10.3,3.6c-4.6,0-8-1.2-9.7-3.2c-1-1.1-1.5-2.6-1.5-4.4c0-1.9,0.6-3.6,1.9-4.9c1.7-2,5-3,9.2-3
			c4.6,0,8,1.1,9.8,3c1.2,1.2,1.8,2.9,1.8,4.8C333.7,96.7,333.3,98,332.5,99.2z M284.8,79.7c-6.6,0-11.4,2.4-13,6.4
			c-1.7-4.3-6.9-6.4-12.2-6.4c-5.6,0-10.9,2.2-12.6,6.3v-5.6h-9v29.4h9.4V94.4c0-3.5,3.2-6.8,8.5-6.8c4.7,0,7.6,2.4,7.6,6.2v16.1
			h9.5V94.4c0-4.5,3.7-6.8,8.2-6.8c6.2,0,7.8,3.1,7.8,6.6c0,10.9,0,15.6,0.5,15.6h9C298,109.5,298,106,298,92
			C298,84.7,294.4,79.7,284.8,79.7z M459.2,80.4c0,0-11.6,21.2-11.6,21.3c0-0.2-12.1-21.3-12.1-21.3h-10.2l17.1,29.4l-5.6,9.6h10.5
			l21.8-39H459.2z M177.2,97.8c-2.7,3.1-6.7,4.2-13.1,4.2c-5.4,0-10.9-1.5-13.6-5.1c-1.3-1.8-2-4.3-2-8c0-3.4,0.7-5.9,2-7.8
			c2.3-3.3,6.9-5.3,13.6-5.3c6.8,0,11.1,1.8,13.1,4.4c1,1.2,1.6,2.8,1.7,4.2h10.5c-0.1-1.6-0.6-4.5-1.9-6.8
			c-3.4-5.8-10.1-10.5-23.3-10.5c-11.5,0-18.3,3.6-22.3,8.7c-2.6,3.1-3.8,7.5-3.8,13c0,6,1.5,10.5,4.3,13.7c3.8,4.8,10.9,8,22,8
			c12.3,0,19.5-3.6,22.8-9.5c1.6-2.6,2.1-5.7,2.3-7.5h-10.5C178.6,95.1,178.2,96.5,177.2,97.8z M384.5,95.6c0.1-2.3-0.2-5.7-0.5-7.2
			c-1.3-5.8-6.6-8.8-18.4-8.8c-13.1,0-18.5,4.7-18.5,10.9h9.2c0-2.1,0.9-3.9,9.7-3.9c5.9,0,8.7,1.3,9.3,3.1c0.2,0.8,0.3,1.6,0.3,2.1
			c-2.9-0.3-8-0.6-11.2-0.6c-15.2,0.2-19,4.8-19,10.2c0,6.4,5.4,8.9,14.8,8.9c8.4,0,13.5-1.6,15.4-3.5c0,1.7,0.4,3,0.6,3h8.9
			c-0.5-1-0.7-4.1-0.7-6.7C384.4,100.7,384.5,97.1,384.5,95.6z M363.1,103.8c-5.8,0-8-1.1-8-3c0-2.3,2.4-3.7,10.9-3.7
			c4,0,7.6,0.3,9.7,0.6C375.7,101.6,371.6,103.8,363.1,103.8z M411.7,79.6c-5.9,0-11.8,1.8-14,6.3v-5.5h-9.2v29.4h9.5V94.6
			c0-4.3,4.5-7,9.7-7c6,0,8.5,2.5,8.5,7c0,14,0.1,15.2,0.5,15.2h9.4c-0.2-0.4-0.4-0.6-0.4-17.2C425.8,84.8,421.8,79.6,411.7,79.6z"
			/>
	</g>
</g>
<g class="st1">
	<path class="st2" d="M0,80.3l7.3-4.2V8.5L0,12.7V80.3z M22,0l-7.3,4.2v59.2l7.3-4.2V8.5L22,0L22,0z"/>
</g>
<g>
	<linearGradient id="SVGID_1_" gradientUnits="userSpaceOnUse" x1="51.2627" y1="21.1407" x2="21.9706" y2="21.1407">
		<stop  offset="0" style="stop-color:#67C5D1;stop-opacity:0.4"/>
		<stop  offset="1" style="stop-color:#67C5D1;stop-opacity:0.7"/>
	</linearGradient>
	<path class="st3" d="M29.3,21.1v8.5l22,12.7v-8.5L29.3,21.1z M51.3,16.9L22,0h0l0,8.5l29.3,16.9V16.9z"/>
</g>
<g class="st1">
	<path class="st2" d="M58.6,114.2l7.3-4.2V42.3l-7.3,4.2V114.2z M80.6,33.8l-7.3,4.2v59.2l7.3-4.2V42.3L80.6,33.8L80.6,33.8z"/>
</g>
<g>
	
		<linearGradient id="SVGID_00000089573336455823145520000006625859876743095941_" gradientUnits="userSpaceOnUse" x1="109.8464" y1="54.9639" x2="80.5542" y2="54.9639">
		<stop  offset="0" style="stop-color:#67C5D1;stop-opacity:0.4"/>
		<stop  offset="1" style="stop-color:#67C5D1;stop-opacity:0.7"/>
	</linearGradient>
	<g>
	<path style="fill:url(#SVGID_00000089573336455823145520000006625859876743095941_);" d="M87.9,55v8.5l22,12.7v-8.5L87.9,55z
		 M109.8,50.7L80.6,33.8h0l0,8.5l29.3,16.9V50.7z"/>
	</g>
</g>
<g>
	
		<linearGradient id="SVGID_00000047028925172439937550000012175477422651887536_" gradientUnits="userSpaceOnUse" x1="25.6323" y1="65.534" x2="36.6169" y2="84.5599">
		<stop  offset="0" style="stop-color:#67C5D1;stop-opacity:0.6674"/>
		<stop  offset="1" style="stop-color:#67C5D1;stop-opacity:0.85"/>
	</linearGradient>
	<path style="fill:url(#SVGID_00000047028925172439937550000012175477422651887536_);" d="M14.6,88.8L22,93l29.3-16.9v-8.5
		L14.6,88.8z M51.3,50.7L7.3,76.1L0,80.3l7.3,4.2l43.9-25.4V50.7z"/>
</g>
<g>
	
		<linearGradient id="SVGID_00000053532396984455932100000001713322257711967122_" gradientUnits="userSpaceOnUse" x1="84.216" y1="99.3573" x2="95.2006" y2="118.3832">
		<stop  offset="0" style="stop-color:#67C5D1;stop-opacity:0.6674"/>
		<stop  offset="1" style="stop-color:#67C5D1;stop-opacity:0.85"/>
	</linearGradient>
	<g>
	<path style="fill:url(#SVGID_00000053532396984455932100000001713322257711967122_);" d="M73.2,122.6l7.3,4.2l29.3-16.9v-8.5
		L73.2,122.6z M109.8,84.6l-43.9,25.4l-7.3,4.2l7.3,4.2L109.8,93V84.6z"/>
	</g>
</g>
</svg>
